<svg width="20" height="20" viewBox="0 0 20 20" fill="none" xmlns="http://www.w3.org/2000/svg">
<path d="M18.8166 4.62219L15.5555 1.34441C15.34 1.13001 15.0484 1.00964 14.7444 1.00964C14.4404 1.00964 14.1488 1.13001 13.9333 1.34441L2.37219 12.8889L1.31664 17.4444C1.28022 17.6109 1.28147 17.7835 1.32029 17.9495C1.35911 18.1155 1.43452 18.2707 1.54101 18.4038C1.64749 18.5369 1.78237 18.6446 1.93579 18.7189C2.08921 18.7932 2.25729 18.8323 2.42775 18.8333C2.50718 18.8413 2.58721 18.8413 2.66664 18.8333L7.27219 17.7777L18.8166 6.24441C19.031 6.02892 19.1514 5.73729 19.1514 5.4333C19.1514 5.12931 19.031 4.83769 18.8166 4.62219V4.62219ZM6.71664 16.7777L2.39997 17.6833L3.3833 13.45L12.0333 4.8333L15.3666 8.16664L6.71664 16.7777ZM16.1111 7.36108L12.7777 4.02775L14.7111 2.10553L17.9889 5.43886L16.1111 7.36108Z" fill="#1A544D"/>
</svg>
