<svg width="20" height="18" viewBox="0 0 20 18" fill="none" xmlns="http://www.w3.org/2000/svg">
<path d="M0 0V1.12C0.00187852 1.25188 0.0557925 1.37769 0.15 1.47L7.43 8.83C7.52421 8.92232 7.57812 9.04812 7.58 9.18V16.07C7.57981 16.1637 7.60596 16.2556 7.65547 16.3352C7.70498 16.4147 7.77585 16.4788 7.86 16.52L11.81 17.93C11.8863 17.9674 11.9709 17.9847 12.0557 17.9803C12.1406 17.976 12.2229 17.95 12.295 17.905C12.3671 17.86 12.4264 17.7973 12.4676 17.7229C12.5087 17.6486 12.5302 17.565 12.53 17.48V9.09C12.5438 8.95484 12.6081 8.82987 12.71 8.74L19.83 1.49C19.9242 1.39768 19.9781 1.27188 19.98 1.14V0H0Z" fill="#EB5838"/>
</svg>
