<svg width="158" height="54" viewBox="0 0 158 54" fill="none" xmlns="http://www.w3.org/2000/svg">
<g clip-path="url(#clip0_161_544)">
<g filter="url(#filter0_d_161_544)">
<path d="M30.288 17.032H32.736C33.344 17.032 33.776 17.064 34.032 17.128C34.32 17.16 34.592 17.32 34.848 17.608C35.104 17.896 35.232 18.328 35.232 18.904C35.232 19.448 35.168 20.056 35.04 20.728C34.944 21.368 34.704 21.928 34.32 22.408C33.936 22.888 33.568 23.16 33.216 23.224C32.864 23.288 32.336 23.32 31.632 23.32H29.232L28.368 28.6H30.816C31.424 28.6 31.856 28.632 32.112 28.696C32.4 28.728 32.672 28.888 32.928 29.176C33.184 29.464 33.312 29.896 33.312 30.472C33.312 31.016 33.264 31.56 33.168 32.104C33.072 32.648 32.912 33.144 32.688 33.592C32.496 34.04 32.224 34.36 31.872 34.552C31.36 34.808 30.64 34.936 29.712 34.936H27.312C26.992 36.92 26.8 38.152 26.736 38.632L26.64 39.16C26.512 39.864 26.4 40.36 26.304 40.648C26.24 40.936 26.08 41.288 25.824 41.704C25.312 42.44 24.128 42.808 22.272 42.808C20.416 42.808 19.488 42.216 19.488 41.032C19.488 41 19.616 40.168 19.872 38.536L20.448 34.936H13.296C12.976 36.92 12.784 38.152 12.72 38.632L12.624 39.16C12.496 39.864 12.384 40.36 12.288 40.648C12.224 40.936 12.064 41.288 11.808 41.704C11.296 42.44 10.112 42.808 8.256 42.808C6.4 42.808 5.472 42.216 5.472 41.032C5.472 41 5.6 40.168 5.856 38.536L6.432 34.936H3.264C1.92 34.936 1.12 34.648 0.864 34.072C0.768 33.816 0.72 33.448 0.72 32.968C0.72 32.456 0.768 31.88 0.864 31.24C0.992 30.568 1.248 29.992 1.632 29.512C2.048 29.032 2.432 28.76 2.784 28.696C3.136 28.632 3.664 28.6 4.368 28.6H7.488L8.352 23.32H5.184C3.808 23.32 3.008 23.048 2.784 22.504C2.688 22.216 2.64 21.832 2.64 21.352C2.64 20.872 2.688 20.312 2.784 19.672C2.912 19 3.168 18.424 3.552 17.944C3.968 17.464 4.352 17.192 4.704 17.128C5.056 17.064 5.584 17.032 6.288 17.032H9.408L10.224 12.088C10.256 11.896 10.288 11.592 10.32 11.176C10.384 10.728 10.432 10.424 10.464 10.264C10.528 10.072 10.608 9.816 10.704 9.496C10.8 9.176 10.928 8.952 11.088 8.824C11.28 8.696 11.52 8.536 11.808 8.344C12.256 8.056 13.072 7.912 14.256 7.912C15.44 7.912 16.256 8.088 16.704 8.44C17.184 8.76 17.424 9.256 17.424 9.928C17.424 10.024 17.344 10.584 17.184 11.608L16.272 17.032H23.424L24.24 12.088C24.272 11.896 24.304 11.592 24.336 11.176C24.4 10.728 24.448 10.424 24.48 10.264C24.544 10.072 24.624 9.816 24.72 9.496C24.816 9.176 24.944 8.952 25.104 8.824C25.296 8.696 25.536 8.536 25.824 8.344C26.272 8.056 27.088 7.912 28.272 7.912C29.456 7.912 30.272 8.088 30.72 8.44C31.2 8.76 31.44 9.256 31.44 9.928C31.44 10.024 31.36 10.584 31.2 11.608L30.288 17.032ZM21.504 28.6L22.368 23.32H15.264L14.352 28.6H21.504ZM59.6171 9.112C59.8731 8.632 60.3051 8.296 60.9131 8.104C61.5211 7.912 62.2891 7.816 63.2171 7.816C64.1451 7.816 64.8811 7.896 65.4251 8.056C65.9691 8.216 66.3851 8.408 66.6731 8.632C66.9611 8.856 67.1851 9.176 67.3451 9.592C67.5051 10.136 67.5851 10.968 67.5851 12.088V38.728C67.5851 39.464 67.5531 40.024 67.4891 40.408C67.4571 40.76 67.3131 41.176 67.0571 41.656C66.6091 42.52 65.3611 42.952 63.3131 42.952C61.0731 42.952 59.7611 42.36 59.3771 41.176C59.1851 40.632 59.0891 39.8 59.0891 38.68V28.936H46.3691V38.728C46.3691 39.464 46.3371 40.024 46.2731 40.408C46.2411 40.76 46.0971 41.176 45.8411 41.656C45.3931 42.52 44.1451 42.952 42.0971 42.952C39.8571 42.952 38.5451 42.36 38.1611 41.176C37.9691 40.632 37.8731 39.8 37.8731 38.68V12.04C37.8731 11.304 37.8891 10.76 37.9211 10.408C37.9851 10.024 38.1451 9.592 38.4011 9.112C38.8491 8.248 40.0971 7.816 42.1451 7.816C44.3851 7.816 45.7131 8.408 46.1291 9.592C46.2891 10.136 46.3691 10.968 46.3691 12.088V21.88H59.0891V12.04C59.0891 11.304 59.1051 10.76 59.1371 10.408C59.2011 10.024 59.3611 9.592 59.6171 9.112ZM95.8196 27.352C95.8196 29.304 95.3236 30.76 94.3316 31.72C93.3716 32.648 92.2996 33.112 91.1156 33.112H79.7396C79.7396 34.008 80.2676 34.76 81.3236 35.368C82.3796 35.976 83.4356 36.28 84.4916 36.28C86.3476 36.28 87.8036 36.088 88.8596 35.704L89.3876 35.512C90.1556 35.16 90.7956 34.984 91.3076 34.984C92.3316 34.984 93.2116 35.704 93.9476 37.144C94.3636 38.008 94.5716 38.744 94.5716 39.352C94.5716 42.2 91.1636 43.624 84.3476 43.624C81.9796 43.624 79.8676 43.224 78.0116 42.424C76.1876 41.592 74.7636 40.504 73.7396 39.16C71.7236 36.568 70.7156 33.672 70.7156 30.472C70.7156 26.44 72.0116 23.224 74.6036 20.824C77.2276 18.392 80.4916 17.176 84.3956 17.176C88.8436 17.176 92.1076 18.744 94.1876 21.88C95.2756 23.544 95.8196 25.368 95.8196 27.352ZM85.6916 28.744C86.9076 28.744 87.5156 28.232 87.5156 27.208C87.5156 26.472 87.2276 25.88 86.6516 25.432C86.1076 24.984 85.3076 24.76 84.2516 24.76C83.2276 24.76 82.2036 25.192 81.1796 26.056C80.1556 26.888 79.6436 27.784 79.6436 28.744H85.6916ZM107.783 34.504C108.839 34.504 109.623 34.776 110.135 35.32C110.647 35.864 110.903 36.984 110.903 38.68C110.903 40.376 110.631 41.512 110.087 42.088C109.543 42.632 108.759 42.904 107.735 42.904C104.503 42.904 102.231 42.136 100.919 40.6C99.6073 39.032 98.9513 36.44 98.9513 32.824V9.928C98.9513 9.192 98.9673 8.648 98.9993 8.296C99.0633 7.912 99.2073 7.48 99.4313 7C99.8793 6.168 101.127 5.752 103.175 5.752C105.127 5.752 106.343 6.2 106.823 7.096C107.079 7.544 107.223 7.96 107.255 8.344C107.319 8.696 107.351 9.24 107.351 9.976V33.016C107.351 34.008 107.495 34.504 107.783 34.504ZM120.311 33.016C120.311 33.624 120.439 34.024 120.695 34.216C120.951 34.408 121.607 34.504 122.663 34.504C123.719 34.504 124.599 34.776 125.303 35.32C126.007 35.864 126.359 36.984 126.359 38.68C126.359 40.376 125.975 41.512 125.207 42.088C124.471 42.632 123.431 42.904 122.087 42.904C115.303 42.904 111.911 39.544 111.911 32.824L111.863 9.928C111.863 9.192 111.879 8.648 111.911 8.296C111.975 7.912 112.135 7.48 112.391 7C112.871 6.168 114.119 5.752 116.135 5.752C118.087 5.752 119.303 6.2 119.783 7.096C120.135 7.8 120.311 8.76 120.311 9.976V33.016ZM128.278 30.376C128.278 26.536 129.622 23.368 132.31 20.872C134.998 18.376 138.07 17.128 141.526 17.128C144.982 17.128 148.038 18.376 150.694 20.872C153.35 23.336 154.678 26.488 154.678 30.328C154.678 32.984 153.99 35.352 152.614 37.432C151.238 39.48 149.558 41 147.574 41.992C145.622 42.952 143.59 43.432 141.478 43.432C139.366 43.432 137.318 42.92 135.334 41.896C133.35 40.84 131.67 39.304 130.294 37.288C128.95 35.24 128.278 32.936 128.278 30.376ZM138.31 33.832C139.334 34.6 140.374 34.984 141.43 34.984C142.486 34.984 143.542 34.584 144.598 33.784C145.654 32.984 146.182 31.8 146.182 30.232C146.182 28.664 145.686 27.496 144.694 26.728C143.702 25.96 142.63 25.576 141.478 25.576C140.326 25.576 139.254 25.976 138.262 26.776C137.27 27.576 136.774 28.76 136.774 30.328C136.774 31.864 137.286 33.032 138.31 33.832Z" fill="#EB5838"/>
<path d="M30.288 17.032H32.736C33.344 17.032 33.776 17.064 34.032 17.128C34.32 17.16 34.592 17.32 34.848 17.608C35.104 17.896 35.232 18.328 35.232 18.904C35.232 19.448 35.168 20.056 35.04 20.728C34.944 21.368 34.704 21.928 34.32 22.408C33.936 22.888 33.568 23.16 33.216 23.224C32.864 23.288 32.336 23.32 31.632 23.32H29.232L28.368 28.6H30.816C31.424 28.6 31.856 28.632 32.112 28.696C32.4 28.728 32.672 28.888 32.928 29.176C33.184 29.464 33.312 29.896 33.312 30.472C33.312 31.016 33.264 31.56 33.168 32.104C33.072 32.648 32.912 33.144 32.688 33.592C32.496 34.04 32.224 34.36 31.872 34.552C31.36 34.808 30.64 34.936 29.712 34.936H27.312C26.992 36.92 26.8 38.152 26.736 38.632L26.64 39.16C26.512 39.864 26.4 40.36 26.304 40.648C26.24 40.936 26.08 41.288 25.824 41.704C25.312 42.44 24.128 42.808 22.272 42.808C20.416 42.808 19.488 42.216 19.488 41.032C19.488 41 19.616 40.168 19.872 38.536L20.448 34.936H13.296C12.976 36.92 12.784 38.152 12.72 38.632L12.624 39.16C12.496 39.864 12.384 40.36 12.288 40.648C12.224 40.936 12.064 41.288 11.808 41.704C11.296 42.44 10.112 42.808 8.256 42.808C6.4 42.808 5.472 42.216 5.472 41.032C5.472 41 5.6 40.168 5.856 38.536L6.432 34.936H3.264C1.92 34.936 1.12 34.648 0.864 34.072C0.768 33.816 0.72 33.448 0.72 32.968C0.72 32.456 0.768 31.88 0.864 31.24C0.992 30.568 1.248 29.992 1.632 29.512C2.048 29.032 2.432 28.76 2.784 28.696C3.136 28.632 3.664 28.6 4.368 28.6H7.488L8.352 23.32H5.184C3.808 23.32 3.008 23.048 2.784 22.504C2.688 22.216 2.64 21.832 2.64 21.352C2.64 20.872 2.688 20.312 2.784 19.672C2.912 19 3.168 18.424 3.552 17.944C3.968 17.464 4.352 17.192 4.704 17.128C5.056 17.064 5.584 17.032 6.288 17.032H9.408L10.224 12.088C10.256 11.896 10.288 11.592 10.32 11.176C10.384 10.728 10.432 10.424 10.464 10.264C10.528 10.072 10.608 9.816 10.704 9.496C10.8 9.176 10.928 8.952 11.088 8.824C11.28 8.696 11.52 8.536 11.808 8.344C12.256 8.056 13.072 7.912 14.256 7.912C15.44 7.912 16.256 8.088 16.704 8.44C17.184 8.76 17.424 9.256 17.424 9.928C17.424 10.024 17.344 10.584 17.184 11.608L16.272 17.032H23.424L24.24 12.088C24.272 11.896 24.304 11.592 24.336 11.176C24.4 10.728 24.448 10.424 24.48 10.264C24.544 10.072 24.624 9.816 24.72 9.496C24.816 9.176 24.944 8.952 25.104 8.824C25.296 8.696 25.536 8.536 25.824 8.344C26.272 8.056 27.088 7.912 28.272 7.912C29.456 7.912 30.272 8.088 30.72 8.44C31.2 8.76 31.44 9.256 31.44 9.928C31.44 10.024 31.36 10.584 31.2 11.608L30.288 17.032ZM21.504 28.6L22.368 23.32H15.264L14.352 28.6H21.504ZM59.6171 9.112C59.8731 8.632 60.3051 8.296 60.9131 8.104C61.5211 7.912 62.2891 7.816 63.2171 7.816C64.1451 7.816 64.8811 7.896 65.4251 8.056C65.9691 8.216 66.3851 8.408 66.6731 8.632C66.9611 8.856 67.1851 9.176 67.3451 9.592C67.5051 10.136 67.5851 10.968 67.5851 12.088V38.728C67.5851 39.464 67.5531 40.024 67.4891 40.408C67.4571 40.76 67.3131 41.176 67.0571 41.656C66.6091 42.52 65.3611 42.952 63.3131 42.952C61.0731 42.952 59.7611 42.36 59.3771 41.176C59.1851 40.632 59.0891 39.8 59.0891 38.68V28.936H46.3691V38.728C46.3691 39.464 46.3371 40.024 46.2731 40.408C46.2411 40.76 46.0971 41.176 45.8411 41.656C45.3931 42.52 44.1451 42.952 42.0971 42.952C39.8571 42.952 38.5451 42.36 38.1611 41.176C37.9691 40.632 37.8731 39.8 37.8731 38.68V12.04C37.8731 11.304 37.8891 10.76 37.9211 10.408C37.9851 10.024 38.1451 9.592 38.4011 9.112C38.8491 8.248 40.0971 7.816 42.1451 7.816C44.3851 7.816 45.7131 8.408 46.1291 9.592C46.2891 10.136 46.3691 10.968 46.3691 12.088V21.88H59.0891V12.04C59.0891 11.304 59.1051 10.76 59.1371 10.408C59.2011 10.024 59.3611 9.592 59.6171 9.112ZM95.8196 27.352C95.8196 29.304 95.3236 30.76 94.3316 31.72C93.3716 32.648 92.2996 33.112 91.1156 33.112H79.7396C79.7396 34.008 80.2676 34.76 81.3236 35.368C82.3796 35.976 83.4356 36.28 84.4916 36.28C86.3476 36.28 87.8036 36.088 88.8596 35.704L89.3876 35.512C90.1556 35.16 90.7956 34.984 91.3076 34.984C92.3316 34.984 93.2116 35.704 93.9476 37.144C94.3636 38.008 94.5716 38.744 94.5716 39.352C94.5716 42.2 91.1636 43.624 84.3476 43.624C81.9796 43.624 79.8676 43.224 78.0116 42.424C76.1876 41.592 74.7636 40.504 73.7396 39.16C71.7236 36.568 70.7156 33.672 70.7156 30.472C70.7156 26.44 72.0116 23.224 74.6036 20.824C77.2276 18.392 80.4916 17.176 84.3956 17.176C88.8436 17.176 92.1076 18.744 94.1876 21.88C95.2756 23.544 95.8196 25.368 95.8196 27.352ZM85.6916 28.744C86.9076 28.744 87.5156 28.232 87.5156 27.208C87.5156 26.472 87.2276 25.88 86.6516 25.432C86.1076 24.984 85.3076 24.76 84.2516 24.76C83.2276 24.76 82.2036 25.192 81.1796 26.056C80.1556 26.888 79.6436 27.784 79.6436 28.744H85.6916ZM107.783 34.504C108.839 34.504 109.623 34.776 110.135 35.32C110.647 35.864 110.903 36.984 110.903 38.68C110.903 40.376 110.631 41.512 110.087 42.088C109.543 42.632 108.759 42.904 107.735 42.904C104.503 42.904 102.231 42.136 100.919 40.6C99.6073 39.032 98.9513 36.44 98.9513 32.824V9.928C98.9513 9.192 98.9673 8.648 98.9993 8.296C99.0633 7.912 99.2073 7.48 99.4313 7C99.8793 6.168 101.127 5.752 103.175 5.752C105.127 5.752 106.343 6.2 106.823 7.096C107.079 7.544 107.223 7.96 107.255 8.344C107.319 8.696 107.351 9.24 107.351 9.976V33.016C107.351 34.008 107.495 34.504 107.783 34.504ZM120.311 33.016C120.311 33.624 120.439 34.024 120.695 34.216C120.951 34.408 121.607 34.504 122.663 34.504C123.719 34.504 124.599 34.776 125.303 35.32C126.007 35.864 126.359 36.984 126.359 38.68C126.359 40.376 125.975 41.512 125.207 42.088C124.471 42.632 123.431 42.904 122.087 42.904C115.303 42.904 111.911 39.544 111.911 32.824L111.863 9.928C111.863 9.192 111.879 8.648 111.911 8.296C111.975 7.912 112.135 7.48 112.391 7C112.871 6.168 114.119 5.752 116.135 5.752C118.087 5.752 119.303 6.2 119.783 7.096C120.135 7.8 120.311 8.76 120.311 9.976V33.016ZM128.278 30.376C128.278 26.536 129.622 23.368 132.31 20.872C134.998 18.376 138.07 17.128 141.526 17.128C144.982 17.128 148.038 18.376 150.694 20.872C153.35 23.336 154.678 26.488 154.678 30.328C154.678 32.984 153.99 35.352 152.614 37.432C151.238 39.48 149.558 41 147.574 41.992C145.622 42.952 143.59 43.432 141.478 43.432C139.366 43.432 137.318 42.92 135.334 41.896C133.35 40.84 131.67 39.304 130.294 37.288C128.95 35.24 128.278 32.936 128.278 30.376ZM138.31 33.832C139.334 34.6 140.374 34.984 141.43 34.984C142.486 34.984 143.542 34.584 144.598 33.784C145.654 32.984 146.182 31.8 146.182 30.232C146.182 28.664 145.686 27.496 144.694 26.728C143.702 25.96 142.63 25.576 141.478 25.576C140.326 25.576 139.254 25.976 138.262 26.776C137.27 27.576 136.774 28.76 136.774 30.328C136.774 31.864 137.286 33.032 138.31 33.832Z" fill="#EB5838"/>
</g>
<path d="M32.288 18.032H34.736C35.344 18.032 35.776 18.064 36.032 18.128C36.32 18.16 36.592 18.32 36.848 18.608C37.104 18.896 37.232 19.328 37.232 19.904C37.232 20.448 37.168 21.056 37.04 21.728C36.944 22.368 36.704 22.928 36.32 23.408C35.936 23.888 35.568 24.16 35.216 24.224C34.864 24.288 34.336 24.32 33.632 24.32H31.232L30.368 29.6H32.816C33.424 29.6 33.856 29.632 34.112 29.696C34.4 29.728 34.672 29.888 34.928 30.176C35.184 30.464 35.312 30.896 35.312 31.472C35.312 32.016 35.264 32.56 35.168 33.104C35.072 33.648 34.912 34.144 34.688 34.592C34.496 35.04 34.224 35.36 33.872 35.552C33.36 35.808 32.64 35.936 31.712 35.936H29.312C28.992 37.92 28.8 39.152 28.736 39.632L28.64 40.16C28.512 40.864 28.4 41.36 28.304 41.648C28.24 41.936 28.08 42.288 27.824 42.704C27.312 43.44 26.128 43.808 24.272 43.808C22.416 43.808 21.488 43.216 21.488 42.032C21.488 42 21.616 41.168 21.872 39.536L22.448 35.936H15.296C14.976 37.92 14.784 39.152 14.72 39.632L14.624 40.16C14.496 40.864 14.384 41.36 14.288 41.648C14.224 41.936 14.064 42.288 13.808 42.704C13.296 43.44 12.112 43.808 10.256 43.808C8.4 43.808 7.472 43.216 7.472 42.032C7.472 42 7.6 41.168 7.856 39.536L8.432 35.936H5.264C3.92 35.936 3.12 35.648 2.864 35.072C2.768 34.816 2.72 34.448 2.72 33.968C2.72 33.456 2.768 32.88 2.864 32.24C2.992 31.568 3.248 30.992 3.632 30.512C4.048 30.032 4.432 29.76 4.784 29.696C5.136 29.632 5.664 29.6 6.368 29.6H9.488L10.352 24.32H7.184C5.808 24.32 5.008 24.048 4.784 23.504C4.688 23.216 4.64 22.832 4.64 22.352C4.64 21.872 4.688 21.312 4.784 20.672C4.912 20 5.168 19.424 5.552 18.944C5.968 18.464 6.352 18.192 6.704 18.128C7.056 18.064 7.584 18.032 8.288 18.032H11.408L12.224 13.088C12.256 12.896 12.288 12.592 12.32 12.176C12.384 11.728 12.432 11.424 12.464 11.264C12.528 11.072 12.608 10.816 12.704 10.496C12.8 10.176 12.928 9.952 13.088 9.824C13.28 9.696 13.52 9.536 13.808 9.344C14.256 9.056 15.072 8.912 16.256 8.912C17.44 8.912 18.256 9.088 18.704 9.44C19.184 9.76 19.424 10.256 19.424 10.928C19.424 11.024 19.344 11.584 19.184 12.608L18.272 18.032H25.424L26.24 13.088C26.272 12.896 26.304 12.592 26.336 12.176C26.4 11.728 26.448 11.424 26.48 11.264C26.544 11.072 26.624 10.816 26.72 10.496C26.816 10.176 26.944 9.952 27.104 9.824C27.296 9.696 27.536 9.536 27.824 9.344C28.272 9.056 29.088 8.912 30.272 8.912C31.456 8.912 32.272 9.088 32.72 9.44C33.2 9.76 33.44 10.256 33.44 10.928C33.44 11.024 33.36 11.584 33.2 12.608L32.288 18.032ZM23.504 29.6L24.368 24.32H17.264L16.352 29.6H23.504ZM61.6171 10.112C61.8731 9.632 62.3051 9.296 62.9131 9.104C63.5211 8.912 64.2891 8.816 65.2171 8.816C66.1451 8.816 66.8811 8.896 67.4251 9.056C67.9691 9.216 68.3851 9.408 68.6731 9.632C68.9611 9.856 69.1851 10.176 69.3451 10.592C69.5051 11.136 69.5851 11.968 69.5851 13.088V39.728C69.5851 40.464 69.5531 41.024 69.4891 41.408C69.4571 41.76 69.3131 42.176 69.0571 42.656C68.6091 43.52 67.3611 43.952 65.3131 43.952C63.0731 43.952 61.7611 43.36 61.3771 42.176C61.1851 41.632 61.0891 40.8 61.0891 39.68V29.936H48.3691V39.728C48.3691 40.464 48.3371 41.024 48.2731 41.408C48.2411 41.76 48.0971 42.176 47.8411 42.656C47.3931 43.52 46.1451 43.952 44.0971 43.952C41.8571 43.952 40.5451 43.36 40.1611 42.176C39.9691 41.632 39.8731 40.8 39.8731 39.68V13.04C39.8731 12.304 39.8891 11.76 39.9211 11.408C39.9851 11.024 40.1451 10.592 40.4011 10.112C40.8491 9.248 42.0971 8.816 44.1451 8.816C46.3851 8.816 47.7131 9.408 48.1291 10.592C48.2891 11.136 48.3691 11.968 48.3691 13.088V22.88H61.0891V13.04C61.0891 12.304 61.1051 11.76 61.1371 11.408C61.2011 11.024 61.3611 10.592 61.6171 10.112ZM97.8196 28.352C97.8196 30.304 97.3236 31.76 96.3316 32.72C95.3716 33.648 94.2996 34.112 93.1156 34.112H81.7396C81.7396 35.008 82.2676 35.76 83.3236 36.368C84.3796 36.976 85.4356 37.28 86.4916 37.28C88.3476 37.28 89.8036 37.088 90.8596 36.704L91.3876 36.512C92.1556 36.16 92.7956 35.984 93.3076 35.984C94.3316 35.984 95.2116 36.704 95.9476 38.144C96.3636 39.008 96.5716 39.744 96.5716 40.352C96.5716 43.2 93.1636 44.624 86.3476 44.624C83.9796 44.624 81.8676 44.224 80.0116 43.424C78.1876 42.592 76.7636 41.504 75.7396 40.16C73.7236 37.568 72.7156 34.672 72.7156 31.472C72.7156 27.44 74.0116 24.224 76.6036 21.824C79.2276 19.392 82.4916 18.176 86.3956 18.176C90.8436 18.176 94.1076 19.744 96.1876 22.88C97.2756 24.544 97.8196 26.368 97.8196 28.352ZM87.6916 29.744C88.9076 29.744 89.5156 29.232 89.5156 28.208C89.5156 27.472 89.2276 26.88 88.6516 26.432C88.1076 25.984 87.3076 25.76 86.2516 25.76C85.2276 25.76 84.2036 26.192 83.1796 27.056C82.1556 27.888 81.6436 28.784 81.6436 29.744H87.6916ZM109.783 35.504C110.839 35.504 111.623 35.776 112.135 36.32C112.647 36.864 112.903 37.984 112.903 39.68C112.903 41.376 112.631 42.512 112.087 43.088C111.543 43.632 110.759 43.904 109.735 43.904C106.503 43.904 104.231 43.136 102.919 41.6C101.607 40.032 100.951 37.44 100.951 33.824V10.928C100.951 10.192 100.967 9.648 100.999 9.296C101.063 8.912 101.207 8.48 101.431 8C101.879 7.168 103.127 6.752 105.175 6.752C107.127 6.752 108.343 7.2 108.823 8.096C109.079 8.544 109.223 8.96 109.255 9.344C109.319 9.696 109.351 10.24 109.351 10.976V34.016C109.351 35.008 109.495 35.504 109.783 35.504ZM122.311 34.016C122.311 34.624 122.439 35.024 122.695 35.216C122.951 35.408 123.607 35.504 124.663 35.504C125.719 35.504 126.599 35.776 127.303 36.32C128.007 36.864 128.359 37.984 128.359 39.68C128.359 41.376 127.975 42.512 127.207 43.088C126.471 43.632 125.431 43.904 124.087 43.904C117.303 43.904 113.911 40.544 113.911 33.824L113.863 10.928C113.863 10.192 113.879 9.648 113.911 9.296C113.975 8.912 114.135 8.48 114.391 8C114.871 7.168 116.119 6.752 118.135 6.752C120.087 6.752 121.303 7.2 121.783 8.096C122.135 8.8 122.311 9.76 122.311 10.976V34.016ZM130.278 31.376C130.278 27.536 131.622 24.368 134.31 21.872C136.998 19.376 140.07 18.128 143.526 18.128C146.982 18.128 150.038 19.376 152.694 21.872C155.35 24.336 156.678 27.488 156.678 31.328C156.678 33.984 155.99 36.352 154.614 38.432C153.238 40.48 151.558 42 149.574 42.992C147.622 43.952 145.59 44.432 143.478 44.432C141.366 44.432 139.318 43.92 137.334 42.896C135.35 41.84 133.67 40.304 132.294 38.288C130.95 36.24 130.278 33.936 130.278 31.376ZM140.31 34.832C141.334 35.6 142.374 35.984 143.43 35.984C144.486 35.984 145.542 35.584 146.598 34.784C147.654 33.984 148.182 32.8 148.182 31.232C148.182 29.664 147.686 28.496 146.694 27.728C145.702 26.96 144.63 26.576 143.478 26.576C142.326 26.576 141.254 26.976 140.262 27.776C139.27 28.576 138.774 29.76 138.774 31.328C138.774 32.864 139.286 34.032 140.31 34.832Z" fill="white"/>
<path d="M32.288 18.032L31.7949 17.9491L31.6969 18.532H32.288V18.032ZM36.032 18.128L35.9107 18.6131L35.9434 18.6212L35.9768 18.6249L36.032 18.128ZM36.848 18.608L36.4743 18.9402L36.4743 18.9402L36.848 18.608ZM37.04 21.728L36.5488 21.6344L36.547 21.6441L36.5455 21.6538L37.04 21.728ZM36.32 23.408L36.7104 23.7203L36.7104 23.7203L36.32 23.408ZM31.232 24.32V23.82H30.8072L30.7386 24.2393L31.232 24.32ZM30.368 29.6L29.8746 29.5193L29.7795 30.1H30.368V29.6ZM34.112 29.696L33.9907 30.1811L34.0234 30.1892L34.0568 30.1929L34.112 29.696ZM34.928 30.176L35.3017 29.8438L35.3017 29.8438L34.928 30.176ZM35.168 33.104L35.6604 33.1909L35.6604 33.1909L35.168 33.104ZM34.688 34.592L34.2408 34.3684L34.2342 34.3815L34.2284 34.395L34.688 34.592ZM33.872 35.552L34.0956 35.9992L34.1036 35.9952L34.1114 35.9909L33.872 35.552ZM29.312 35.936V35.436H28.8862L28.8184 35.8564L29.312 35.936ZM28.736 39.632L29.2279 39.7214L29.2301 39.7098L29.2316 39.6981L28.736 39.632ZM28.64 40.16L28.1481 40.0706L28.1481 40.0706L28.64 40.16ZM28.304 41.648L27.8297 41.4899L27.8215 41.5144L27.8159 41.5395L28.304 41.648ZM27.824 42.704L28.2345 42.9895L28.2425 42.978L28.2498 42.966L27.824 42.704ZM21.872 39.536L21.3783 39.457L21.378 39.4585L21.872 39.536ZM22.448 35.936L22.9417 36.015L23.0344 35.436H22.448V35.936ZM15.296 35.936V35.436H14.8702L14.8024 35.8564L15.296 35.936ZM14.72 39.632L15.2119 39.7214L15.2141 39.7098L15.2156 39.6981L14.72 39.632ZM14.624 40.16L14.1321 40.0706L14.1321 40.0706L14.624 40.16ZM14.288 41.648L13.8137 41.4899L13.8055 41.5144L13.7999 41.5395L14.288 41.648ZM13.808 42.704L14.2185 42.9895L14.2265 42.978L14.2338 42.966L13.808 42.704ZM7.856 39.536L7.36228 39.457L7.36204 39.4585L7.856 39.536ZM8.432 35.936L8.92572 36.015L9.01836 35.436H8.432V35.936ZM2.864 35.072L2.39584 35.2476L2.40106 35.2615L2.40709 35.2751L2.864 35.072ZM2.864 32.24L2.37283 32.1464L2.37099 32.1561L2.36953 32.1658L2.864 32.24ZM3.632 30.512L3.25416 30.1845L3.24771 30.192L3.24157 30.1997L3.632 30.512ZM4.784 29.696L4.69456 29.2041L4.69456 29.2041L4.784 29.696ZM9.488 29.6V30.1H9.91283L9.98144 29.6807L9.488 29.6ZM10.352 24.32L10.8454 24.4007L10.9405 23.82H10.352V24.32ZM4.784 23.504L4.30966 23.6621L4.3151 23.6785L4.32166 23.6944L4.784 23.504ZM4.784 20.672L4.29283 20.5784L4.29099 20.5881L4.28953 20.5978L4.784 20.672ZM5.552 18.944L5.17416 18.6165L5.16771 18.624L5.16157 18.6317L5.552 18.944ZM6.704 18.128L6.61456 17.6361L6.61456 17.6361L6.704 18.128ZM11.408 18.032V18.532H11.8322L11.9013 18.1134L11.408 18.032ZM12.224 13.088L11.7308 13.0058L11.7307 13.0066L12.224 13.088ZM12.32 12.176L11.825 12.1053L11.8227 12.1214L11.8215 12.1377L12.32 12.176ZM12.464 11.264L11.9897 11.1059L11.9798 11.1354L11.9737 11.1659L12.464 11.264ZM12.704 10.496L12.2251 10.3523L12.2251 10.3523L12.704 10.496ZM13.088 9.824L12.8107 9.40797L12.7926 9.42001L12.7757 9.43357L13.088 9.824ZM13.808 9.344L13.5376 8.92335L13.5306 8.92797L13.808 9.344ZM18.704 9.44L18.3951 9.83316L18.4104 9.84521L18.4267 9.85602L18.704 9.44ZM19.184 12.608L19.6771 12.6909L19.678 12.6852L19.184 12.608ZM18.272 18.032L17.7789 17.9491L17.6809 18.532H18.272V18.032ZM25.424 18.032V18.532H25.8482L25.9173 18.1134L25.424 18.032ZM26.24 13.088L25.7468 13.0058L25.7467 13.0066L26.24 13.088ZM26.336 12.176L25.841 12.1053L25.8387 12.1214L25.8375 12.1377L26.336 12.176ZM26.48 11.264L26.0057 11.1059L25.9958 11.1354L25.9897 11.1659L26.48 11.264ZM26.72 10.496L27.1989 10.6397L27.1989 10.6397L26.72 10.496ZM27.104 9.824L26.8267 9.40797L26.8086 9.42001L26.7917 9.43357L27.104 9.824ZM27.824 9.344L27.5536 8.92335L27.5467 8.92797L27.824 9.344ZM32.72 9.44L32.4111 9.83316L32.4264 9.84521L32.4427 9.85602L32.72 9.44ZM33.2 12.608L33.6931 12.6909L33.694 12.6852L33.2 12.608ZM23.504 29.6V30.1H23.9288L23.9974 29.6807L23.504 29.6ZM24.368 24.32L24.8614 24.4007L24.9565 23.82H24.368V24.32ZM17.264 24.32V23.82H16.843L16.7713 24.2349L17.264 24.32ZM16.352 29.6L15.8593 29.5149L15.7582 30.1H16.352V29.6ZM32.288 18.532H34.736V17.532H32.288V18.532ZM34.736 18.532C35.3421 18.532 35.7198 18.5653 35.9107 18.6131L36.1533 17.6429C35.8322 17.5627 35.3459 17.532 34.736 17.532V18.532ZM35.9768 18.6249C36.1061 18.6393 36.2729 18.7136 36.4743 18.9402L37.2217 18.2758C36.9111 17.9264 36.5339 17.6807 36.0872 17.6311L35.9768 18.6249ZM36.4743 18.9402C36.6168 19.1005 36.732 19.3915 36.732 19.904H37.732C37.732 19.2645 37.5912 18.6915 37.2217 18.2758L36.4743 18.9402ZM36.732 19.904C36.732 20.4098 36.6724 20.9858 36.5488 21.6344L37.5312 21.8216C37.6636 21.1262 37.732 20.4862 37.732 19.904H36.732ZM36.5455 21.6538C36.4619 22.2114 36.2556 22.6882 35.9296 23.0957L36.7104 23.7203C37.1525 23.1678 37.4261 22.5246 37.5345 21.8022L36.5455 21.6538ZM35.9296 23.0957C35.5714 23.5433 35.3 23.7005 35.1266 23.7321L35.3054 24.7159C35.836 24.6195 36.3006 24.2327 36.7104 23.7203L35.9296 23.0957ZM35.1266 23.7321C34.8203 23.7878 34.3289 23.82 33.632 23.82V24.82C34.3431 24.82 34.9077 24.7882 35.3054 24.7159L35.1266 23.7321ZM33.632 23.82H31.232V24.82H33.632V23.82ZM30.7386 24.2393L29.8746 29.5193L30.8614 29.6807L31.7254 24.4007L30.7386 24.2393ZM30.368 30.1H32.816V29.1H30.368V30.1ZM32.816 30.1C33.4221 30.1 33.7998 30.1333 33.9907 30.1811L34.2333 29.2109C33.9122 29.1307 33.4259 29.1 32.816 29.1V30.1ZM34.0568 30.1929C34.1861 30.2073 34.3529 30.2816 34.5543 30.5082L35.3017 29.8438C34.9911 29.4944 34.6139 29.2487 34.1672 29.1991L34.0568 30.1929ZM34.5543 30.5082C34.6968 30.6685 34.812 30.9595 34.812 31.472H35.812C35.812 30.8325 35.6712 30.2595 35.3017 29.8438L34.5543 30.5082ZM34.812 31.472C34.812 31.9864 34.7666 32.5014 34.6756 33.0171L35.6604 33.1909C35.7614 32.6186 35.812 32.0456 35.812 31.472H34.812ZM34.6756 33.0171C34.5871 33.5184 34.4411 33.9677 34.2408 34.3684L35.1352 34.8156C35.3829 34.3203 35.5569 33.7776 35.6604 33.1909L34.6756 33.0171ZM34.2284 34.395C34.0708 34.7629 33.8663 34.9856 33.6326 35.1131L34.1114 35.9909C34.5817 35.7344 34.9212 35.3171 35.1476 34.789L34.2284 34.395ZM33.6484 35.1048C33.236 35.311 32.6052 35.436 31.712 35.436V36.436C32.6748 36.436 33.484 36.305 34.0956 35.9992L33.6484 35.1048ZM31.712 35.436H29.312V36.436H31.712V35.436ZM28.8184 35.8564C28.4988 37.8377 28.3055 39.0776 28.2404 39.5659L29.2316 39.6981C29.2945 39.2264 29.4852 38.0023 29.8056 36.0156L28.8184 35.8564ZM28.2441 39.5426L28.1481 40.0706L29.1319 40.2494L29.2279 39.7214L28.2441 39.5426ZM28.1481 40.0706C28.0202 40.774 27.9133 41.2389 27.8297 41.4899L28.7783 41.8061C28.8867 41.4811 29.0038 40.954 29.1319 40.2494L28.1481 40.0706ZM27.8159 41.5395C27.7693 41.7493 27.6415 42.0465 27.3982 42.442L28.2498 42.966C28.5185 42.5295 28.7107 42.1227 28.7921 41.7565L27.8159 41.5395ZM27.4135 42.4185C27.2415 42.6658 26.9294 42.8911 26.4036 43.0545C25.8772 43.2182 25.1721 43.308 24.272 43.308V44.308C25.2279 44.308 26.0428 44.2138 26.7004 44.0095C27.3586 43.8049 27.8945 43.4782 28.2345 42.9895L27.4135 42.4185ZM24.272 43.308C23.3811 43.308 22.7986 43.163 22.4529 42.9425C22.1454 42.7463 21.988 42.4687 21.988 42.032H20.988C20.988 42.7793 21.2946 43.3897 21.9151 43.7855C22.4974 44.157 23.3069 44.308 24.272 44.308V43.308ZM21.988 42.032C21.988 42.0672 21.9834 42.0971 21.9859 42.0768C21.9864 42.0726 21.9875 42.0643 21.9893 42.0508C21.993 42.0243 21.9987 41.9848 22.0066 41.9313C22.0224 41.8247 22.0462 41.6678 22.0782 41.46C22.1421 41.0448 22.238 40.4294 22.366 39.6135L21.378 39.4585C21.25 40.2746 21.1539 40.8912 21.0898 41.308C21.0578 41.5162 21.0336 41.6753 21.0174 41.7847C21.0093 41.8392 21.003 41.8827 20.9987 41.9142C20.9966 41.9297 20.9946 41.9442 20.9931 41.9565C20.9924 41.9624 20.9915 41.9701 20.9907 41.9781C20.9906 41.9794 20.988 42.0036 20.988 42.032H21.988ZM22.3657 39.615L22.9417 36.015L21.9543 35.857L21.3783 39.457L22.3657 39.615ZM22.448 35.436H15.296V36.436H22.448V35.436ZM14.8024 35.8564C14.4828 37.8377 14.2895 39.0776 14.2244 39.5659L15.2156 39.6981C15.2785 39.2264 15.4692 38.0023 15.7896 36.0156L14.8024 35.8564ZM14.2281 39.5426L14.1321 40.0706L15.1159 40.2494L15.2119 39.7214L14.2281 39.5426ZM14.1321 40.0706C14.0042 40.774 13.8973 41.2389 13.8137 41.4899L14.7623 41.8061C14.8707 41.4811 14.9878 40.954 15.1159 40.2494L14.1321 40.0706ZM13.7999 41.5395C13.7533 41.7493 13.6255 42.0465 13.3822 42.442L14.2338 42.966C14.5025 42.5295 14.6947 42.1227 14.7761 41.7565L13.7999 41.5395ZM13.3975 42.4185C13.2255 42.6658 12.9134 42.8911 12.3876 43.0545C11.8612 43.2182 11.1561 43.308 10.256 43.308V44.308C11.2119 44.308 12.0268 44.2138 12.6844 44.0095C13.3426 43.8049 13.8785 43.4782 14.2185 42.9895L13.3975 42.4185ZM10.256 43.308C9.36508 43.308 8.78261 43.163 8.43691 42.9425C8.12943 42.7463 7.972 42.4687 7.972 42.032H6.972C6.972 42.7793 7.27857 43.3897 7.89909 43.7855C8.48139 44.157 9.29092 44.308 10.256 44.308V43.308ZM7.972 42.032C7.972 42.0672 7.96741 42.0971 7.96987 42.0768C7.97038 42.0726 7.97145 42.0643 7.97331 42.0508C7.97697 42.0243 7.98268 41.9848 7.9906 41.9313C8.00639 41.8247 8.03022 41.6678 8.06219 41.46C8.12607 41.0448 8.22198 40.4294 8.34996 39.6135L7.36204 39.4585C7.23402 40.2746 7.13793 40.8912 7.07381 41.308C7.04178 41.5162 7.01761 41.6753 7.0014 41.7847C6.99332 41.8392 6.98703 41.8827 6.98269 41.9142C6.98055 41.9297 6.97862 41.9442 6.97713 41.9565C6.97641 41.9624 6.97552 41.9701 6.97474 41.9781C6.97461 41.9794 6.972 42.0036 6.972 42.032H7.972ZM8.34972 39.615L8.92572 36.015L7.93828 35.857L7.36228 39.457L8.34972 39.615ZM8.432 35.436H5.264V36.436H8.432V35.436ZM5.264 35.436C4.6202 35.436 4.14886 35.366 3.82536 35.2496C3.50729 35.135 3.37627 34.9935 3.32091 34.8689L2.40709 35.2751C2.60773 35.7265 3.00471 36.0169 3.48664 36.1904C3.96314 36.362 4.5638 36.436 5.264 36.436V35.436ZM3.33216 34.8964C3.26741 34.7238 3.22 34.4263 3.22 33.968H2.22C2.22 34.4697 2.26859 34.9082 2.39584 35.2476L3.33216 34.8964ZM3.22 33.968C3.22 33.4863 3.26524 32.9357 3.35847 32.3142L2.36953 32.1658C2.27076 32.8243 2.22 33.4257 2.22 33.968H3.22ZM3.35517 32.3336C3.46967 31.7324 3.69488 31.2338 4.02243 30.8243L3.24157 30.1997C2.80112 30.7502 2.51433 31.4036 2.37283 32.1464L3.35517 32.3336ZM4.00984 30.8395C4.40286 30.386 4.69207 30.2209 4.87344 30.1879L4.69456 29.2041C4.17193 29.2991 3.69314 29.678 3.25416 30.1845L4.00984 30.8395ZM4.87344 30.1879C5.17973 30.1322 5.67112 30.1 6.368 30.1V29.1C5.65688 29.1 5.09227 29.1318 4.69456 29.2041L4.87344 30.1879ZM6.368 30.1H9.488V29.1H6.368V30.1ZM9.98144 29.6807L10.8454 24.4007L9.85856 24.2393L8.99456 29.5193L9.98144 29.6807ZM10.352 23.82H7.184V24.82H10.352V23.82ZM7.184 23.82C6.52086 23.82 6.03887 23.7534 5.71295 23.6426C5.38834 23.5322 5.28284 23.4023 5.24634 23.3136L4.32166 23.6944C4.50916 24.1497 4.91566 24.4278 5.39105 24.5894C5.86513 24.7506 6.47114 24.82 7.184 24.82V23.82ZM5.25834 23.3459C5.18626 23.1296 5.14 22.8057 5.14 22.352H4.14C4.14 22.8583 4.18974 23.3024 4.30966 23.6621L5.25834 23.3459ZM5.14 22.352C5.14 21.9037 5.18497 21.3695 5.27847 20.7462L4.28953 20.5978C4.19103 21.2545 4.14 21.8403 4.14 22.352H5.14ZM5.27517 20.7656C5.38967 20.1644 5.61488 19.6658 5.94243 19.2563L5.16157 18.6317C4.72112 19.1822 4.43433 19.8356 4.29283 20.5784L5.27517 20.7656ZM5.92984 19.2715C6.32286 18.818 6.61207 18.6529 6.79344 18.6199L6.61456 17.6361C6.09193 17.7311 5.61314 18.11 5.17416 18.6165L5.92984 19.2715ZM6.79344 18.6199C7.09973 18.5642 7.59112 18.532 8.288 18.532V17.532C7.57688 17.532 7.01227 17.5638 6.61456 17.6361L6.79344 18.6199ZM8.288 18.532H11.408V17.532H8.288V18.532ZM11.9013 18.1134L12.7173 13.1694L11.7307 13.0066L10.9147 17.9506L11.9013 18.1134ZM12.7172 13.1702C12.7531 12.955 12.7864 12.6324 12.8185 12.2143L11.8215 12.1377C11.7896 12.5516 11.7589 12.837 11.7308 13.0058L12.7172 13.1702ZM12.815 12.2467C12.8792 11.7972 12.9254 11.5065 12.9543 11.3621L11.9737 11.1659C11.9386 11.3415 11.8888 11.6588 11.825 12.1053L12.815 12.2467ZM12.9383 11.4221C13.0046 11.2233 13.0863 10.9618 13.1829 10.6397L12.2251 10.3523C12.1297 10.6702 12.0514 10.9207 11.9897 11.1059L12.9383 11.4221ZM13.1829 10.6397C13.2665 10.3611 13.3554 10.2504 13.4003 10.2144L12.7757 9.43357C12.5006 9.65362 12.3335 9.99089 12.2251 10.3523L13.1829 10.6397ZM13.3654 10.24C13.5574 10.112 13.7974 9.95202 14.0854 9.76002L13.5306 8.92797C13.2426 9.11997 13.0026 9.27997 12.8107 9.40797L13.3654 10.24ZM14.0784 9.76459C14.2243 9.67077 14.4678 9.57858 14.8429 9.51239C15.2129 9.44709 15.6819 9.412 16.256 9.412V8.412C15.6461 8.412 15.1151 8.44891 14.6691 8.52761C14.2282 8.60541 13.8397 8.72923 13.5376 8.92341L14.0784 9.76459ZM16.256 9.412C17.4276 9.412 18.0903 9.59364 18.3951 9.83316L19.0129 9.04684C18.4218 8.58236 17.4524 8.412 16.256 8.412V9.412ZM18.4267 9.85602C18.7429 10.0669 18.924 10.3912 18.924 10.928H19.924C19.924 10.1208 19.6251 9.45314 18.9814 9.02397L18.4267 9.85602ZM18.924 10.928C18.924 10.9156 18.9237 10.9363 18.9127 11.0265C18.9033 11.1035 18.8888 11.2107 18.869 11.3493C18.8295 11.626 18.7699 12.0195 18.69 12.5308L19.678 12.6852C19.7581 12.1725 19.8185 11.774 19.859 11.4907C19.8792 11.3493 19.8947 11.2345 19.9053 11.1475C19.9143 11.0737 19.924 10.9884 19.924 10.928H18.924ZM18.6909 12.5251L17.7789 17.9491L18.7651 18.1149L19.6771 12.6909L18.6909 12.5251ZM18.272 18.532H25.424V17.532H18.272V18.532ZM25.9173 18.1134L26.7333 13.1694L25.7467 13.0066L24.9307 17.9506L25.9173 18.1134ZM26.7332 13.1702C26.7691 12.955 26.8024 12.6324 26.8345 12.2143L25.8375 12.1377C25.8056 12.5516 25.7749 12.837 25.7468 13.0058L26.7332 13.1702ZM26.831 12.2467C26.8952 11.7972 26.9414 11.5065 26.9703 11.3621L25.9897 11.1659C25.9546 11.3415 25.9048 11.6588 25.841 12.1053L26.831 12.2467ZM26.9543 11.4221C27.0206 11.2233 27.1023 10.9618 27.1989 10.6397L26.2411 10.3523C26.1457 10.6702 26.0674 10.9207 26.0057 11.1059L26.9543 11.4221ZM27.1989 10.6397C27.2825 10.3611 27.3714 10.2504 27.4163 10.2144L26.7917 9.43357C26.5166 9.65362 26.3495 9.99089 26.2411 10.3523L27.1989 10.6397ZM27.3813 10.24C27.5734 10.112 27.8134 9.95202 28.1014 9.76002L27.5467 8.92797C27.2587 9.11997 27.0187 9.27997 26.8267 9.40797L27.3813 10.24ZM28.0944 9.76459C28.2403 9.67077 28.4838 9.57858 28.8589 9.51239C29.2289 9.44709 29.6979 9.412 30.272 9.412V8.412C29.6621 8.412 29.1311 8.44891 28.6851 8.52761C28.2442 8.60541 27.8557 8.72923 27.5536 8.92341L28.0944 9.76459ZM30.272 9.412C31.4436 9.412 32.1063 9.59364 32.4111 9.83316L33.0289 9.04684C32.4378 8.58236 31.4684 8.412 30.272 8.412V9.412ZM32.4427 9.85602C32.7589 10.0669 32.94 10.3912 32.94 10.928H33.94C33.94 10.1208 33.6411 9.45314 32.9974 9.02397L32.4427 9.85602ZM32.94 10.928C32.94 10.9156 32.9397 10.9363 32.9287 11.0265C32.9193 11.1035 32.9048 11.2107 32.885 11.3493C32.8455 11.626 32.7859 12.0195 32.706 12.5308L33.694 12.6852C33.7741 12.1725 33.8345 11.774 33.875 11.4907C33.8952 11.3493 33.9107 11.2345 33.9213 11.1475C33.9303 11.0737 33.94 10.9884 33.94 10.928H32.94ZM32.7069 12.5251L31.7949 17.9491L32.7811 18.1149L33.6931 12.6909L32.7069 12.5251ZM23.9974 29.6807L24.8614 24.4007L23.8746 24.2393L23.0106 29.5193L23.9974 29.6807ZM24.368 23.82H17.264V24.82H24.368V23.82ZM16.7713 24.2349L15.8593 29.5149L16.8447 29.6851L17.7567 24.4051L16.7713 24.2349ZM16.352 30.1H23.504V29.1H16.352V30.1ZM62.9131 9.104L62.7626 8.62721L62.7626 8.62721L62.9131 9.104ZM68.6731 9.632L68.3662 10.0267L68.3662 10.0267L68.6731 9.632ZM69.3451 10.592L69.8248 10.4509L69.8191 10.4314L69.8118 10.4125L69.3451 10.592ZM69.4891 41.408L68.9959 41.3258L68.9929 41.3442L68.9912 41.3627L69.4891 41.408ZM69.0571 42.656L68.6159 42.4207L68.6132 42.4258L69.0571 42.656ZM61.3771 42.176L61.8529 42.0217L61.8486 42.0096L61.3771 42.176ZM61.0891 29.936H61.5891V29.436H61.0891V29.936ZM48.3691 29.936V29.436H47.8691V29.936H48.3691ZM48.2731 41.408L47.7799 41.3258L47.7769 41.3442L47.7752 41.3627L48.2731 41.408ZM47.8411 42.656L47.3999 42.4207L47.3972 42.4258L47.8411 42.656ZM40.1611 42.176L40.6369 42.0217L40.6326 42.0096L40.1611 42.176ZM39.9211 11.408L39.4279 11.3258L39.4249 11.3442L39.4232 11.3627L39.9211 11.408ZM40.4011 10.112L40.8423 10.3473L40.845 10.3422L40.4011 10.112ZM48.1291 10.592L48.6088 10.4509L48.6052 10.4385L48.6009 10.4263L48.1291 10.592ZM48.3691 22.88H47.8691V23.38H48.3691V22.88ZM61.0891 22.88V23.38H61.5891V22.88H61.0891ZM61.1371 11.408L60.6439 11.3258L60.6409 11.3442L60.6392 11.3627L61.1371 11.408ZM62.0583 10.3473C62.2422 10.0024 62.5574 9.74068 63.0637 9.58079L62.7626 8.62721C62.0529 8.85131 61.504 9.26158 61.176 9.8767L62.0583 10.3473ZM63.0637 9.58079C63.6063 9.40944 64.3191 9.316 65.2171 9.316V8.316C64.2591 8.316 63.4359 8.41456 62.7626 8.62721L63.0637 9.58079ZM65.2171 9.316C66.1236 9.316 66.8056 9.39496 67.284 9.53568L67.5662 8.57632C66.9566 8.39703 66.1667 8.316 65.2171 8.316V9.316ZM67.284 9.53568C67.7976 9.68672 68.1473 9.85643 68.3662 10.0267L68.9801 9.23732C68.623 8.95956 68.1407 8.74527 67.5662 8.57632L67.284 9.53568ZM68.3662 10.0267C68.5679 10.1836 68.7439 10.4216 68.8785 10.7715L69.8118 10.4125C69.6264 9.93039 69.3543 9.52838 68.9801 9.23732L68.3662 10.0267ZM68.8654 10.7331C69.0045 11.2058 69.0851 11.9788 69.0851 13.088H70.0851C70.0851 11.9572 70.0058 11.0662 69.8248 10.4509L68.8654 10.7331ZM69.0851 13.088V39.728H70.0851V13.088H69.0851ZM69.0851 39.728C69.0851 40.4561 69.053 40.9832 68.9959 41.3258L69.9823 41.4902C70.0532 41.0648 70.0851 40.4719 70.0851 39.728H69.0851ZM68.9912 41.3627C68.9676 41.6222 68.8557 41.9711 68.6159 42.4207L69.4983 42.8913C69.7705 42.3809 69.9467 41.8978 69.9871 41.4533L68.9912 41.3627ZM68.6132 42.4258C68.4666 42.7086 68.1685 42.9662 67.6216 43.1555C67.0709 43.3461 66.3086 43.452 65.3131 43.452V44.452C66.3656 44.452 67.2514 44.3419 67.9487 44.1005C68.6497 43.8578 69.1996 43.4674 69.501 42.8862L68.6132 42.4258ZM65.3131 43.452C63.0986 43.452 62.1255 42.8627 61.8527 42.0217L60.9015 42.3303C61.3968 43.8573 63.0476 44.452 65.3131 44.452V43.452ZM61.8486 42.0096C61.6858 41.5484 61.5891 40.7863 61.5891 39.68H60.5891C60.5891 40.8137 60.6844 41.7156 60.9056 42.3424L61.8486 42.0096ZM61.5891 39.68V29.936H60.5891V39.68H61.5891ZM61.0891 29.436H48.3691V30.436H61.0891V29.436ZM47.8691 29.936V39.728H48.8691V29.936H47.8691ZM47.8691 39.728C47.8691 40.4561 47.837 40.9832 47.7799 41.3258L48.7663 41.4902C48.8372 41.0648 48.8691 40.4719 48.8691 39.728H47.8691ZM47.7752 41.3627C47.7516 41.6222 47.6397 41.9711 47.3999 42.4207L48.2823 42.8913C48.5545 42.3809 48.7307 41.8978 48.7711 41.4533L47.7752 41.3627ZM47.3972 42.4258C47.2506 42.7086 46.9525 42.9662 46.4056 43.1555C45.8549 43.3461 45.0926 43.452 44.0971 43.452V44.452C45.1496 44.452 46.0354 44.3419 46.7327 44.1005C47.4337 43.8578 47.9836 43.4674 48.285 42.8862L47.3972 42.4258ZM44.0971 43.452C41.8826 43.452 40.9095 42.8627 40.6367 42.0217L39.6855 42.3303C40.1808 43.8573 41.8316 44.452 44.0971 44.452V43.452ZM40.6326 42.0096C40.4698 41.5484 40.3731 40.7863 40.3731 39.68H39.3731C39.3731 40.8137 39.4684 41.7156 39.6896 42.3424L40.6326 42.0096ZM40.3731 39.68V13.04H39.3731V39.68H40.3731ZM40.3731 13.04C40.3731 12.3066 40.3892 11.7815 40.4191 11.4533L39.4232 11.3627C39.389 11.7385 39.3731 12.3014 39.3731 13.04H40.3731ZM40.4143 11.4902C40.4666 11.1763 40.6025 10.7969 40.8423 10.3473L39.9599 9.8767C39.6878 10.3871 39.5036 10.8717 39.4279 11.3258L40.4143 11.4902ZM40.845 10.3422C40.9916 10.0594 41.2897 9.80183 41.8367 9.61249C42.3874 9.42186 43.1496 9.316 44.1451 9.316V8.316C43.0926 8.316 42.2069 8.42614 41.5096 8.66751C40.8085 8.91017 40.2586 9.30062 39.9572 9.88184L40.845 10.3422ZM44.1451 9.316C46.3552 9.316 47.3574 9.90389 47.6574 10.7577L48.6009 10.4263C48.0689 8.9121 46.415 8.316 44.1451 8.316V9.316ZM47.6494 10.7331C47.7885 11.2058 47.8691 11.9788 47.8691 13.088H48.8691C48.8691 11.9572 48.7898 11.0662 48.6088 10.4509L47.6494 10.7331ZM47.8691 13.088V22.88H48.8691V13.088H47.8691ZM48.3691 23.38H61.0891V22.38H48.3691V23.38ZM61.5891 22.88V13.04H60.5891V22.88H61.5891ZM61.5891 13.04C61.5891 12.3066 61.6052 11.7815 61.6351 11.4533L60.6392 11.3627C60.605 11.7385 60.5891 12.3014 60.5891 13.04H61.5891ZM61.6303 11.4902C61.6826 11.1763 61.8185 10.7969 62.0583 10.3473L61.176 9.8767C60.9038 10.3871 60.7196 10.8717 60.6439 11.3258L61.6303 11.4902ZM96.3316 32.72L96.6791 33.0795L96.6793 33.0793L96.3316 32.72ZM81.7396 34.112V33.612H81.2396V34.112H81.7396ZM83.3236 36.368L83.5731 35.9347L83.5731 35.9347L83.3236 36.368ZM90.8596 36.704L90.6888 36.2341L90.6888 36.2341L90.8596 36.704ZM91.3876 36.512L91.5585 36.9819L91.5775 36.975L91.596 36.9665L91.3876 36.512ZM95.9476 38.144L96.3983 37.927L96.3928 37.9164L95.9476 38.144ZM80.0116 43.424L79.8041 43.879L79.8137 43.8832L80.0116 43.424ZM75.7396 40.16L76.1374 39.857L76.1343 39.853L75.7396 40.16ZM76.6036 21.824L76.9433 22.1909L76.9435 22.1907L76.6036 21.824ZM96.1876 22.88L96.6061 22.6064L96.6043 22.6036L96.1876 22.88ZM88.6516 26.432L88.3336 26.8181L88.3447 26.8267L88.6516 26.432ZM83.1796 27.056L83.495 27.4441L83.5021 27.4381L83.1796 27.056ZM81.6436 29.744H81.1436V30.244H81.6436V29.744ZM97.3196 28.352C97.3196 30.2255 96.8441 31.5283 95.9839 32.3607L96.6793 33.0793C97.8032 31.9917 98.3196 30.3825 98.3196 28.352H97.3196ZM95.9841 32.3605C95.1044 33.2109 94.153 33.612 93.1156 33.612V34.612C94.4462 34.612 95.6388 34.0851 96.6791 33.0795L95.9841 32.3605ZM93.1156 33.612H81.7396V34.612H93.1156V33.612ZM81.2396 34.112C81.2396 35.2493 81.9262 36.1404 83.0741 36.8013L83.5731 35.9347C82.609 35.3796 82.2396 34.7667 82.2396 34.112H81.2396ZM83.0741 36.8013C84.1942 37.4462 85.3354 37.78 86.4916 37.78V36.78C85.5359 36.78 84.565 36.5058 83.5731 35.9347L83.0741 36.8013ZM86.4916 37.78C88.373 37.78 89.8956 37.5866 91.0305 37.1739L90.6888 36.2341C89.7117 36.5894 88.3222 36.78 86.4916 36.78V37.78ZM91.0305 37.1739L91.5585 36.9819L91.2168 36.0421L90.6888 36.2341L91.0305 37.1739ZM91.596 36.9665C92.3358 36.6274 92.8995 36.484 93.3076 36.484V35.484C92.6917 35.484 91.9754 35.6926 91.1793 36.0575L91.596 36.9665ZM93.3076 36.484C94.0493 36.484 94.798 36.9934 95.5024 38.3716L96.3928 37.9164C95.6252 36.4146 94.6139 35.484 93.3076 35.484V36.484ZM95.4971 38.3609C95.8974 39.1922 96.0716 39.8501 96.0716 40.352H97.0716C97.0716 39.6379 96.8299 38.8238 96.3981 37.9271L95.4971 38.3609ZM96.0716 40.352C96.0716 40.9559 95.8939 41.4677 95.5418 41.9092C95.1834 42.3584 94.6234 42.7601 93.8229 43.0947C92.2117 43.7679 89.7359 44.124 86.3476 44.124V45.124C89.7754 45.124 92.4116 44.7681 94.2084 44.0173C95.1118 43.6399 95.8299 43.1516 96.3235 42.5328C96.8233 41.9063 97.0716 41.1721 97.0716 40.352H96.0716ZM86.3476 44.124C84.0361 44.124 81.9932 43.7337 80.2095 42.9648L79.8137 43.8832C81.742 44.7143 83.9231 45.124 86.3476 45.124V44.124ZM80.2191 42.9691C78.4561 42.1649 77.1029 41.1243 76.1373 39.857L75.3419 40.463C76.4244 41.8837 77.9191 43.0191 79.8041 43.8789L80.2191 42.9691ZM76.1343 39.853C74.1846 37.3463 73.2156 34.5577 73.2156 31.472H72.2156C72.2156 34.7863 73.2626 37.7897 75.3449 40.467L76.1343 39.853ZM73.2156 31.472C73.2156 27.5576 74.4684 24.4825 76.9433 22.1909L76.2639 21.4571C73.5548 23.9655 72.2156 27.3224 72.2156 31.472H73.2156ZM76.9435 22.1907C79.4663 19.8525 82.6052 18.676 86.3956 18.676V17.676C82.3781 17.676 78.989 18.9315 76.2637 21.4573L76.9435 22.1907ZM86.3956 18.676C90.7113 18.676 93.8015 20.1871 95.7709 23.1564L96.6043 22.6036C94.4137 19.3009 90.976 17.676 86.3956 17.676V18.676ZM95.7691 23.1536C96.8041 24.7365 97.3196 26.4654 97.3196 28.352H98.3196C98.3196 26.2706 97.7472 24.3515 96.6061 22.6064L95.7691 23.1536ZM87.6916 30.244C88.3577 30.244 88.9505 30.1056 89.3817 29.7425C89.8293 29.3655 90.0156 28.8218 90.0156 28.208H89.0156C89.0156 28.6182 88.8979 28.8425 88.7376 28.9775C88.5608 29.1264 88.2415 29.244 87.6916 29.244V30.244ZM90.0156 28.208C90.0156 27.3193 89.6576 26.581 88.9586 26.0373L88.3447 26.8267C88.7976 27.179 89.0156 27.6247 89.0156 28.208H90.0156ZM88.9695 26.046C88.3008 25.4954 87.368 25.26 86.2516 25.26V26.26C87.2473 26.26 87.9144 26.4726 88.3338 26.818L88.9695 26.046ZM86.2516 25.26C85.0773 25.26 83.9432 25.7576 82.8572 26.6739L83.5021 27.4381C84.4641 26.6264 85.378 26.26 86.2516 26.26V25.26ZM82.8643 26.6679C81.7697 27.5573 81.1436 28.5825 81.1436 29.744H82.1436C82.1436 28.9855 82.5415 28.2187 83.4949 27.4441L82.8643 26.6679ZM81.6436 30.244H87.6916V29.244H81.6436V30.244ZM112.135 36.32L112.499 35.9773L112.499 35.9773L112.135 36.32ZM112.087 43.088L112.441 43.4416L112.446 43.4365L112.451 43.4313L112.087 43.088ZM102.919 41.6L102.536 41.9209L102.539 41.9247L102.919 41.6ZM100.999 9.296L100.506 9.2138L100.503 9.23218L100.501 9.25073L100.999 9.296ZM101.431 8L100.991 7.76295L100.984 7.77557L100.978 7.78855L101.431 8ZM108.823 8.096L108.382 8.3322L108.389 8.34407L108.823 8.096ZM109.255 9.344L108.757 9.38552L108.759 9.40963L108.763 9.43344L109.255 9.344ZM122.695 35.216L122.995 34.816L122.995 34.816L122.695 35.216ZM127.303 36.32L127.609 35.9244L127.609 35.9244L127.303 36.32ZM127.207 43.088L127.504 43.4901L127.507 43.488L127.207 43.088ZM113.911 33.824H114.411L114.411 33.823L113.911 33.824ZM113.863 10.928L113.363 10.928L113.363 10.929L113.863 10.928ZM113.911 9.296L113.418 9.2138L113.415 9.23218L113.413 9.25073L113.911 9.296ZM114.391 8L113.958 7.75014L113.954 7.75735L113.95 7.7647L114.391 8ZM121.783 8.096L122.231 7.8723L122.224 7.85989L121.783 8.096ZM109.783 36.004C110.76 36.004 111.387 36.2548 111.771 36.6627L112.499 35.9773C111.859 35.2972 110.919 35.004 109.783 35.004V36.004ZM111.771 36.6627C111.942 36.8441 112.106 37.1633 112.224 37.6794C112.341 38.19 112.403 38.8535 112.403 39.68H113.403C113.403 38.8105 113.338 38.066 113.199 37.4566C113.061 36.8527 112.841 36.3399 112.499 35.9773L111.771 36.6627ZM112.403 39.68C112.403 40.5047 112.337 41.1706 112.213 41.6876C112.088 42.2081 111.914 42.5435 111.724 42.7447L112.451 43.4313C112.805 43.0565 113.038 42.5359 113.186 41.9204C113.334 41.3014 113.403 40.5513 113.403 39.68H112.403ZM111.734 42.7344C111.311 43.1568 110.672 43.404 109.735 43.404V44.404C110.846 44.404 111.775 44.1072 112.441 43.4416L111.734 42.7344ZM109.735 43.404C106.563 43.404 104.472 42.6478 103.299 41.2753L102.539 41.9247C103.991 43.6242 106.444 44.404 109.735 44.404V43.404ZM103.303 41.2791C102.105 39.8481 101.451 37.4037 101.451 33.824H100.451C100.451 37.4763 101.109 40.2159 102.536 41.9209L103.303 41.2791ZM101.451 33.824V10.928H100.451V33.824H101.451ZM101.451 10.928C101.451 10.1946 101.467 9.66949 101.497 9.34127L100.501 9.25073C100.467 9.62651 100.451 10.1894 100.451 10.928H101.451ZM101.492 9.3782C101.547 9.05169 101.673 8.66407 101.884 8.21144L100.978 7.78855C100.741 8.29593 100.58 8.77231 100.506 9.2138L101.492 9.3782ZM101.871 8.23705C102.015 7.9708 102.31 7.72198 102.861 7.53834C103.414 7.35406 104.179 7.252 105.175 7.252V6.252C104.124 6.252 103.24 6.35794 102.545 6.58966C101.848 6.82202 101.296 7.19719 100.991 7.76295L101.871 8.23705ZM105.175 7.252C107.11 7.252 108.047 7.70575 108.383 8.33211L109.264 7.85989C108.64 6.69424 107.145 6.252 105.175 6.252V7.252ZM108.389 8.34407C108.621 8.74913 108.733 9.09448 108.757 9.38552L109.754 9.30247C109.714 8.82551 109.538 8.33887 109.257 7.84793L108.389 8.34407ZM108.763 9.43344C108.819 9.73895 108.851 10.2455 108.851 10.976H109.851C109.851 10.2345 109.82 9.65304 109.747 9.25456L108.763 9.43344ZM108.851 10.976V34.016H109.851V10.976H108.851ZM108.851 34.016C108.851 34.5243 108.887 34.9537 108.979 35.2714C109.025 35.4296 109.096 35.6003 109.217 35.7394C109.351 35.8932 109.545 36.004 109.783 36.004V35.004C109.877 35.004 109.945 35.0528 109.971 35.0826C109.984 35.0977 109.966 35.0824 109.939 34.9926C109.888 34.8143 109.851 34.4997 109.851 34.016H108.851ZM121.811 34.016C121.811 34.6495 121.936 35.2716 122.395 35.616L122.995 34.816C122.942 34.7764 122.811 34.5985 122.811 34.016H121.811ZM122.395 35.616C122.63 35.7922 122.967 35.877 123.307 35.9267C123.669 35.9797 124.123 36.004 124.663 36.004V35.004C124.147 35.004 123.746 34.9803 123.452 34.9373C123.305 34.9158 123.194 34.8907 123.113 34.8652C123.073 34.8526 123.044 34.8409 123.023 34.8313C123.003 34.8216 122.995 34.8157 122.995 34.816L122.395 35.616ZM124.663 36.004C125.63 36.004 126.397 36.2513 126.998 36.7156L127.609 35.9244C126.802 35.3007 125.808 35.004 124.663 35.004V36.004ZM126.998 36.7156C127.504 37.1069 127.859 38.009 127.859 39.68H128.859C128.859 37.959 128.511 36.6211 127.609 35.9244L126.998 36.7156ZM127.859 39.68C127.859 41.335 127.479 42.2593 126.907 42.688L127.507 43.488C128.472 42.7647 128.859 41.417 128.859 39.68H127.859ZM126.91 42.6859C126.292 43.1428 125.372 43.404 124.087 43.404V44.404C125.49 44.404 126.651 44.1212 127.504 43.4901L126.91 42.6859ZM124.087 43.404C120.771 43.404 118.376 42.583 116.807 41.0288C115.239 39.4754 114.411 37.1057 114.411 33.824H113.411C113.411 37.2623 114.28 39.9326 116.103 41.7392C117.926 43.545 120.619 44.404 124.087 44.404V43.404ZM114.411 33.823L114.363 10.927L113.363 10.929L113.411 33.825L114.411 33.823ZM114.363 10.928C114.363 10.1946 114.379 9.66949 114.409 9.34126L113.413 9.25073C113.379 9.62651 113.363 10.1894 113.363 10.928H114.363ZM114.404 9.3782C114.457 9.06431 114.593 8.68495 114.832 8.23529L113.95 7.7647C113.678 8.27505 113.494 8.75969 113.418 9.2138L114.404 9.3782ZM114.824 8.24986C114.984 7.97347 115.294 7.72203 115.845 7.53834C116.399 7.35385 117.156 7.252 118.135 7.252V6.252C117.099 6.252 116.224 6.35814 115.529 6.58966C114.832 6.82196 114.279 7.19453 113.958 7.75014L114.824 8.24986ZM118.135 7.252C120.07 7.252 121.007 7.70575 121.343 8.33211L122.224 7.85989C121.6 6.69424 120.105 6.252 118.135 6.252V7.252ZM121.336 8.31961C121.64 8.92656 121.811 9.79934 121.811 10.976H122.811C122.811 9.72066 122.631 8.67344 122.23 7.87239L121.336 8.31961ZM121.811 10.976V34.016H122.811V10.976H121.811ZM134.31 21.872L134.65 22.2384L134.65 22.2384L134.31 21.872ZM152.694 21.872L152.352 22.2364L152.354 22.2386L152.694 21.872ZM154.614 38.432L155.029 38.7109L155.031 38.7079L154.614 38.432ZM149.574 42.992L149.795 43.4407L149.798 43.4392L149.574 42.992ZM137.334 42.896L137.099 43.3374L137.105 43.3403L137.334 42.896ZM132.294 38.288L131.876 38.5624L131.881 38.5699L132.294 38.288ZM140.31 34.832L140.002 35.2261L140.01 35.232L140.31 34.832ZM146.598 34.784L146.296 34.3855L146.296 34.3855L146.598 34.784ZM146.694 27.728L146.388 28.1234L146.388 28.1234L146.694 27.728ZM140.262 27.776L139.948 27.3868L139.948 27.3868L140.262 27.776ZM130.778 31.376C130.778 27.6677 132.069 24.6349 134.65 22.2384L133.97 21.5056C131.175 24.1011 129.778 27.4043 129.778 31.376H130.778ZM134.65 22.2384C137.252 19.8225 140.205 18.628 143.526 18.628V17.628C139.936 17.628 136.744 18.9295 133.97 21.5056L134.65 22.2384ZM143.526 18.628C146.847 18.628 149.783 19.8223 152.352 22.2364L153.037 21.5076C150.293 18.9297 147.117 17.628 143.526 17.628V18.628ZM152.354 22.2386C154.901 24.6018 156.178 27.6177 156.178 31.328H157.178C157.178 27.3583 155.799 24.0702 153.034 21.5054L152.354 22.2386ZM156.178 31.328C156.178 33.8926 155.515 36.1634 154.197 38.1561L155.031 38.7079C156.465 36.5406 157.178 34.0754 157.178 31.328H156.178ZM154.199 38.1532C152.866 40.1377 151.249 41.5956 149.351 42.5448L149.798 43.4392C151.867 42.4044 153.61 40.8223 155.029 38.7108L154.199 38.1532ZM149.353 42.5433C147.468 43.4706 145.511 43.932 143.478 43.932V44.932C145.669 44.932 147.776 44.4334 149.795 43.4407L149.353 42.5433ZM143.478 43.932C141.45 43.932 139.481 43.4412 137.563 42.4517L137.105 43.3403C139.156 44.3988 141.282 44.932 143.478 44.932V43.932ZM137.569 42.4546C135.662 41.4398 134.042 39.9612 132.707 38.0061L131.881 38.5699C133.299 40.6468 135.038 42.2402 137.099 43.3374L137.569 42.4546ZM132.712 38.0137C131.424 36.051 130.778 33.8432 130.778 31.376H129.778C129.778 34.0288 130.476 36.429 131.876 38.5623L132.712 38.0137ZM140.01 35.232C141.102 36.0508 142.245 36.484 143.43 36.484V35.484C142.504 35.484 141.566 35.1492 140.61 34.432L140.01 35.232ZM143.43 36.484C144.62 36.484 145.78 36.0314 146.9 35.1825L146.296 34.3855C145.305 35.1366 144.352 35.484 143.43 35.484V36.484ZM146.9 35.1825C148.105 34.27 148.682 32.9241 148.682 31.232H147.682C147.682 32.6759 147.204 33.698 146.296 34.3855L146.9 35.1825ZM148.682 31.232C148.682 29.5519 148.145 28.2187 147 27.3326L146.388 28.1234C147.228 28.7733 147.682 29.7761 147.682 31.232H148.682ZM147 27.3326C145.929 26.5032 144.751 26.076 143.478 26.076V27.076C144.509 27.076 145.475 27.4168 146.388 28.1234L147 27.3326ZM143.478 26.076C142.2 26.076 141.019 26.5232 139.948 27.3868L140.576 28.1652C141.489 27.4288 142.453 27.076 143.478 27.076V26.076ZM139.948 27.3868C138.812 28.3034 138.274 29.6471 138.274 31.328H139.274C139.274 29.8729 139.729 28.8486 140.576 28.1652L139.948 27.3868ZM138.274 31.328C138.274 32.9865 138.834 34.3135 140.002 35.226L140.618 34.438C139.738 33.7505 139.274 32.7415 139.274 31.328H138.274Z" fill="#EB5838"/>
</g>
<defs>
<filter id="filter0_d_161_544" x="-3.28003" y="4.75195" width="161.958" height="45.8721" filterUnits="userSpaceOnUse" color-interpolation-filters="sRGB">
<feFlood flood-opacity="0" result="BackgroundImageFix"/>
<feColorMatrix in="SourceAlpha" type="matrix" values="0 0 0 0 0 0 0 0 0 0 0 0 0 0 0 0 0 0 127 0" result="hardAlpha"/>
<feOffset dy="3"/>
<feGaussianBlur stdDeviation="2"/>
<feComposite in2="hardAlpha" operator="out"/>
<feColorMatrix type="matrix" values="0 0 0 0 0 0 0 0 0 0 0 0 0 0 0 0 0 0 0.4 0"/>
<feBlend mode="normal" in2="BackgroundImageFix" result="effect1_dropShadow_161_544"/>
<feBlend mode="normal" in="SourceGraphic" in2="effect1_dropShadow_161_544" result="shape"/>
</filter>
<clipPath id="clip0_161_544">
<rect width="158" height="54" fill="white"/>
</clipPath>
</defs>
</svg>
