<svg width="36" height="36" viewBox="0 0 36 36" fill="none" xmlns="http://www.w3.org/2000/svg">
<path d="M22.4 11.65C22.4 11.9391 22.5148 12.2163 22.7193 12.4207C22.9237 12.6251 23.2009 12.74 23.49 12.74H34.43V1.80997C34.43 1.51955 34.3146 1.24104 34.1093 1.03568C33.9039 0.830332 33.6254 0.714966 33.335 0.714966C33.0446 0.714966 32.7661 0.830332 32.5607 1.03568C32.3554 1.24104 32.24 1.51955 32.24 1.80997V8.94997C30.1895 5.94719 27.1997 3.7105 23.7402 2.59111C20.2806 1.47172 16.5473 1.53304 13.1264 2.76544C9.70552 3.99784 6.79082 6.33152 4.84001 9.40001C2.8892 12.4685 2.01277 16.098 2.34835 19.7186C2.68392 23.3392 4.2125 26.7458 6.69405 29.4035C9.1756 32.0612 12.4696 33.8194 16.0587 34.4021C19.6478 34.9847 23.3288 34.3589 26.5237 32.6227C29.7185 30.8866 32.2463 28.1385 33.71 24.81C33.8184 24.54 33.8175 24.2386 33.7075 23.9693C33.5976 23.7 33.3872 23.4841 33.1209 23.3671C32.8546 23.2502 32.5532 23.2415 32.2805 23.3428C32.0079 23.4441 31.7854 23.6475 31.66 23.91C30.3897 26.803 28.1895 29.189 25.4087 30.6891C22.6278 32.1892 19.4256 32.7176 16.3102 32.1903C13.1949 31.6631 10.3449 30.1104 8.21249 27.7788C6.08013 25.4471 4.7876 22.4701 4.54004 19.3201C4.29247 16.1702 5.10406 13.0278 6.84599 10.3917C8.58792 7.75552 11.1604 5.7767 14.1551 4.76924C17.1499 3.76178 20.3953 3.7834 23.3764 4.83067C26.3575 5.87794 28.9033 7.89086 30.61 10.55H23.5C23.3552 10.5486 23.2115 10.5762 23.0775 10.631C22.9434 10.6858 22.8216 10.7668 22.7192 10.8692C22.6168 10.9716 22.5358 11.0934 22.481 11.2274C22.4262 11.3615 22.3987 11.5051 22.4 11.65Z" fill="#1A543F"/>
</svg>
