<svg width="40" height="40" viewBox="0 0 40 40" fill="none" xmlns="http://www.w3.org/2000/svg">
<path d="M5.44198 35.8981L36.152 20.7661C36.3194 20.6835 36.4605 20.5558 36.5591 20.3973C36.6577 20.2387 36.7099 20.0558 36.7099 19.8691C36.7099 19.6824 36.6577 19.4994 36.5591 19.3409C36.4605 19.1824 36.3194 19.0546 36.152 18.9721L5.43998 3.84007C5.26792 3.75554 5.0752 3.72226 4.88476 3.74417C4.69432 3.76608 4.51419 3.84227 4.36583 3.96366C4.21746 4.08505 4.10712 4.24652 4.04793 4.42885C3.98874 4.61118 3.9832 4.80668 4.03198 4.99207L7.96998 19.8601L4.02998 34.7441C3.98039 34.9298 3.98542 35.126 4.04445 35.309C4.10347 35.4919 4.214 35.654 4.3628 35.7758C4.51159 35.8976 4.69234 35.9739 4.88338 35.9956C5.07443 36.0173 5.26768 35.9834 5.43998 35.8981H5.44198ZM6.52798 33.1321L9.74798 20.9681L9.87198 20.9921L9.99998 21.0001H24C24.2499 21.0005 24.4909 20.9074 24.6755 20.739C24.8602 20.5707 24.9752 20.3393 24.9977 20.0904C25.0203 19.8416 24.9489 19.5932 24.7975 19.3944C24.6462 19.1956 24.4259 19.0606 24.18 19.0161L24 19.0001H9.99998C9.93829 18.9998 9.8767 19.0051 9.81598 19.0161L6.52998 6.60407L33.446 19.8681L6.52798 33.1321Z" fill="#1A543F"/>
</svg>
