<svg width="20" height="20" viewBox="0 0 20 20" fill="none" xmlns="http://www.w3.org/2000/svg">
<g opacity="0.7">
<path d="M15.0778 18.8889H4.92225C4.70847 18.8838 4.49778 18.8367 4.30221 18.7502C4.10665 18.6637 3.93004 18.5395 3.78249 18.3848C3.63493 18.23 3.51932 18.0477 3.44226 17.8482C3.3652 17.6487 3.32819 17.436 3.33336 17.2222V6.23889H4.44447V17.2222C4.43917 17.2901 4.44734 17.3584 4.46851 17.4231C4.48968 17.4878 4.52344 17.5477 4.56784 17.5994C4.61224 17.651 4.66641 17.6933 4.72723 17.7239C4.78806 17.7546 4.85433 17.7729 4.92225 17.7778H15.0778C15.1457 17.7729 15.212 17.7546 15.2728 17.7239C15.3336 17.6933 15.3878 17.651 15.4322 17.5994C15.4766 17.5477 15.5104 17.4878 15.5315 17.4231C15.5527 17.3584 15.5609 17.2901 15.5556 17.2222V6.23889H16.6667V17.2222C16.6719 17.436 16.6349 17.6487 16.5578 17.8482C16.4807 18.0477 16.3651 18.23 16.2176 18.3848C16.07 18.5395 15.8934 18.6637 15.6978 18.7502C15.5023 18.8367 15.2916 18.8838 15.0778 18.8889V18.8889Z" fill="#1A544D"/>
<path d="M17.1 5.00003H2.77778C2.63044 5.00003 2.48913 4.9415 2.38495 4.83731C2.28076 4.73312 2.22223 4.59181 2.22223 4.44447C2.22223 4.29713 2.28076 4.15582 2.38495 4.05163C2.48913 3.94745 2.63044 3.88892 2.77778 3.88892H17.1C17.2473 3.88892 17.3887 3.94745 17.4928 4.05163C17.597 4.15582 17.6556 4.29713 17.6556 4.44447C17.6556 4.59181 17.597 4.73312 17.4928 4.83731C17.3887 4.9415 17.2473 5.00003 17.1 5.00003Z" fill="#1A544D"/>
<path d="M11.6667 7.22217H12.7778V15.5555H11.6667V7.22217Z" fill="#1A544D"/>
<path d="M7.22223 7.22217H8.33334V15.5555H7.22223V7.22217Z" fill="#1A544D"/>
<path d="M12.7778 3.25553H11.7222V2.2222H8.27779V3.25553H7.22223V2.2222C7.22187 1.93689 7.33128 1.66238 7.52779 1.45553C7.72429 1.24868 7.99283 1.12535 8.27779 1.11108H11.7222C12.0072 1.12535 12.2757 1.24868 12.4722 1.45553C12.6687 1.66238 12.7781 1.93689 12.7778 2.2222V3.25553Z" fill="#1A544D"/>
</g>
<g opacity="0.7">
<path d="M15.0778 18.8889H4.92225C4.70847 18.8838 4.49778 18.8367 4.30221 18.7502C4.10665 18.6637 3.93004 18.5395 3.78249 18.3848C3.63493 18.23 3.51932 18.0477 3.44226 17.8482C3.3652 17.6487 3.32819 17.436 3.33336 17.2222V6.23889H4.44447V17.2222C4.43917 17.2901 4.44734 17.3584 4.46851 17.4231C4.48968 17.4878 4.52344 17.5477 4.56784 17.5994C4.61224 17.651 4.66641 17.6933 4.72723 17.7239C4.78806 17.7546 4.85433 17.7729 4.92225 17.7778H15.0778C15.1457 17.7729 15.212 17.7546 15.2728 17.7239C15.3336 17.6933 15.3878 17.651 15.4322 17.5994C15.4766 17.5477 15.5104 17.4878 15.5315 17.4231C15.5527 17.3584 15.5609 17.2901 15.5556 17.2222V6.23889H16.6667V17.2222C16.6719 17.436 16.6349 17.6487 16.5578 17.8482C16.4807 18.0477 16.3651 18.23 16.2176 18.3848C16.07 18.5395 15.8934 18.6637 15.6978 18.7502C15.5023 18.8367 15.2916 18.8838 15.0778 18.8889V18.8889Z" fill="#1A544D"/>
<path d="M17.1 5.00003H2.77778C2.63044 5.00003 2.48913 4.9415 2.38495 4.83731C2.28076 4.73312 2.22223 4.59181 2.22223 4.44447C2.22223 4.29713 2.28076 4.15582 2.38495 4.05163C2.48913 3.94745 2.63044 3.88892 2.77778 3.88892H17.1C17.2473 3.88892 17.3887 3.94745 17.4928 4.05163C17.597 4.15582 17.6556 4.29713 17.6556 4.44447C17.6556 4.59181 17.597 4.73312 17.4928 4.83731C17.3887 4.9415 17.2473 5.00003 17.1 5.00003Z" fill="#1A544D"/>
<path d="M11.6667 7.22217H12.7778V15.5555H11.6667V7.22217Z" fill="#1A544D"/>
<path d="M7.22223 7.22217H8.33334V15.5555H7.22223V7.22217Z" fill="#1A544D"/>
<path d="M12.7778 3.25553H11.7222V2.2222H8.27779V3.25553H7.22223V2.2222C7.22187 1.93689 7.33128 1.66238 7.52779 1.45553C7.72429 1.24868 7.99283 1.12535 8.27779 1.11108H11.7222C12.0072 1.12535 12.2757 1.24868 12.4722 1.45553C12.6687 1.66238 12.7781 1.93689 12.7778 2.2222V3.25553Z" fill="#1A544D"/>
</g>
<g opacity="0.7">
<path d="M15.0778 18.8889H4.92225C4.70847 18.8838 4.49778 18.8367 4.30221 18.7502C4.10665 18.6637 3.93004 18.5395 3.78249 18.3848C3.63493 18.23 3.51932 18.0477 3.44226 17.8482C3.3652 17.6487 3.32819 17.436 3.33336 17.2222V6.23889H4.44447V17.2222C4.43917 17.2901 4.44734 17.3584 4.46851 17.4231C4.48968 17.4878 4.52344 17.5477 4.56784 17.5994C4.61224 17.651 4.66641 17.6933 4.72723 17.7239C4.78806 17.7546 4.85433 17.7729 4.92225 17.7778H15.0778C15.1457 17.7729 15.212 17.7546 15.2728 17.7239C15.3336 17.6933 15.3878 17.651 15.4322 17.5994C15.4766 17.5477 15.5104 17.4878 15.5315 17.4231C15.5527 17.3584 15.5609 17.2901 15.5556 17.2222V6.23889H16.6667V17.2222C16.6719 17.436 16.6349 17.6487 16.5578 17.8482C16.4807 18.0477 16.3651 18.23 16.2176 18.3848C16.07 18.5395 15.8934 18.6637 15.6978 18.7502C15.5023 18.8367 15.2916 18.8838 15.0778 18.8889V18.8889Z" fill="#1A544D"/>
<path d="M17.1 5.00003H2.77778C2.63044 5.00003 2.48913 4.9415 2.38495 4.83731C2.28076 4.73312 2.22223 4.59181 2.22223 4.44447C2.22223 4.29713 2.28076 4.15582 2.38495 4.05163C2.48913 3.94745 2.63044 3.88892 2.77778 3.88892H17.1C17.2473 3.88892 17.3887 3.94745 17.4928 4.05163C17.597 4.15582 17.6556 4.29713 17.6556 4.44447C17.6556 4.59181 17.597 4.73312 17.4928 4.83731C17.3887 4.9415 17.2473 5.00003 17.1 5.00003Z" fill="#1A544D"/>
<path d="M11.6667 7.22217H12.7778V15.5555H11.6667V7.22217Z" fill="#1A544D"/>
<path d="M7.22223 7.22217H8.33334V15.5555H7.22223V7.22217Z" fill="#1A544D"/>
<path d="M12.7778 3.25553H11.7222V2.2222H8.27779V3.25553H7.22223V2.2222C7.22187 1.93689 7.33128 1.66238 7.52779 1.45553C7.72429 1.24868 7.99283 1.12535 8.27779 1.11108H11.7222C12.0072 1.12535 12.2757 1.24868 12.4722 1.45553C12.6687 1.66238 12.7781 1.93689 12.7778 2.2222V3.25553Z" fill="#1A544D"/>
</g>
</svg>
